<?xml version="1.0" encoding="utf-8"?>
<!DOCTYPE svg PUBLIC "-//W3C//DTD SVG 1.1//EN" "http://www.w3.org/Graphics/SVG/1.1/DTD/svg11.dtd">
<svg version="1.1" id="Layer_1" xmlns="http://www.w3.org/2000/svg" xmlns:xlink="http://www.w3.org/1999/xlink" x="0px" y="0px"
	 viewBox="0 0 400 400" enable-background="new 0 0 400 400" xml:space="preserve">
<g>
	<!-- Blue biker - helmet -->
	<path d="M200,50 C180,50 160,70 160,90 L160,120 C160,140 180,160 200,160 C220,160 240,140 240,120 L240,90 C240,70 220,50 200,50 Z"
		style="opacity:1;fill:#0e5cf5;fill-opacity:1;stroke:#000000;stroke-width:2;stroke-linecap:round;stroke-linejoin:round;stroke-miterlimit:4;stroke-dasharray:none;stroke-dashoffset:0;stroke-opacity:1" />
	
	<!-- Blue biker - face shield -->
	<path d="M180,90 C180,80 190,70 200,70 C210,70 220,80 220,90 L220,110 C220,120 210,130 200,130 C190,130 180,120 180,110 Z"
		style="opacity:1;fill:#e6ab78;fill-opacity:1;stroke:#000000;stroke-width:1;stroke-linecap:round;stroke-linejoin:round;stroke-miterlimit:4;stroke-dasharray:none;stroke-dashoffset:0;stroke-opacity:1" />
	
	<!-- Blue biker - body -->
	<path d="M200,160 L200,200 C200,220 180,240 160,240 L140,240 C120,240 100,220 100,200 L100,180 C100,160 120,140 140,140 L160,140 C180,140 200,160 200,160 Z"
		style="opacity:1;fill:#0e5cf5;fill-opacity:1;stroke:#000000;stroke-width:2;stroke-linecap:round;stroke-linejoin:round;stroke-miterlimit:4;stroke-dasharray:none;stroke-dashoffset:0;stroke-opacity:1" />
	
	<!-- Blue biker - arms -->
	<path d="M200,180 L180,200 L160,190 L140,200 L120,190 L100,200 L80,190 L60,200 L40,190 L20,200 L0,190 L0,170 L20,180 L40,170 L60,180 L80,170 L100,180 L120,170 L140,180 L160,170 L180,180 L200,180 Z"
		style="opacity:1;fill:#0e5cf5;fill-opacity:1;stroke:#000000;stroke-width:2;stroke-linecap:round;stroke-linejoin:round;stroke-miterlimit:4;stroke-dasharray:none;stroke-dashoffset:0;stroke-opacity:1" />
	
	<!-- Blue biker - legs -->
	<path d="M200,240 L200,280 C200,300 180,320 160,320 L140,320 C120,320 100,300 100,280 L100,260 C100,240 120,220 140,220 L160,220 C180,220 200,240 200,240 Z"
		style="opacity:1;fill:#0e5cf5;fill-opacity:1;stroke:#000000;stroke-width:2;stroke-linecap:round;stroke-linejoin:round;stroke-miterlimit:4;stroke-dasharray:none;stroke-dashoffset:0;stroke-opacity:1" />
	
	<!-- Blue motorcycle frame -->
	<path d="M200,280 L300,280 L320,300 L340,320 L360,340 L380,360 L400,380 L400,400 L380,400 L360,380 L340,360 L320,340 L300,320 L280,300 L260,280 L240,260 L220,240 L200,240 Z"
		style="opacity:1;fill:#0e4356;fill-opacity:1;stroke:#000000;stroke-width:2;stroke-linecap:round;stroke-linejoin:round;stroke-miterlimit:4;stroke-dasharray:none;stroke-dashoffset:0;stroke-opacity:1" />
	
	<!-- Blue motorcycle wheels -->
	<circle cx="250" cy="320" r="30"
		style="opacity:1;fill:#1e1e1e;fill-opacity:1;stroke:#000000;stroke-width:2;stroke-linecap:round;stroke-linejoin:round;stroke-miterlimit:4;stroke-dasharray:none;stroke-dashoffset:0;stroke-opacity:1" />
	<circle cx="350" cy="360" r="30"
		style="opacity:1;fill:#1e1e1e;fill-opacity:1;stroke:#000000;stroke-width:2;stroke-linecap:round;stroke-linejoin:round;stroke-miterlimit:4;stroke-dasharray:none;stroke-dashoffset:0;stroke-opacity:1" />
	
	<!-- Wheel spokes -->
	<line x1="250" y1="290" x2="250" y2="350"
		style="opacity:1;fill:none;fill-opacity:1;stroke:#a0a0a0;stroke-width:2;stroke-linecap:round;stroke-linejoin:round;stroke-miterlimit:4;stroke-dasharray:none;stroke-dashoffset:0;stroke-opacity:1" />
	<line x1="220" y1="320" x2="280" y2="320"
		style="opacity:1;fill:none;fill-opacity:1;stroke:#a0a0a0;stroke-width:2;stroke-linecap:round;stroke-linejoin:round;stroke-miterlimit:4;stroke-dasharray:none;stroke-dashoffset:0;stroke-opacity:1" />
	<line x1="350" y1="330" x2="350" y2="390"
		style="opacity:1;fill:none;fill-opacity:1;stroke:#a0a0a0;stroke-width:2;stroke-linecap:round;stroke-linejoin:round;stroke-miterlimit:4;stroke-dasharray:none;stroke-dashoffset:0;stroke-opacity:1" />
	<line x1="320" y1="360" x2="380" y2="360"
		style="opacity:1;fill:none;fill-opacity:1;stroke:#a0a0a0;stroke-width:2;stroke-linecap:round;stroke-linejoin:round;stroke-miterlimit:4;stroke-dasharray:none;stroke-dashoffset:0;stroke-opacity:1" />
</g>
</svg>
