<?xml version="1.0" encoding="UTF-8"?>
<svg id="Lager_1" data-name="Lager 1" xmlns="http://www.w3.org/2000/svg" viewBox="0 0 386.56 113.38">
  <defs>
    <style>
      .cls-1 {
        fill: #fff;
      }

      .cls-2 {
        fill: #e6e6e6;
      }
    </style>
  </defs>
  <g id="Motoaction.se">
    <g>
      <g>
        <path class="cls-1" d="M156.62,13.34l12.89,28.19,12.96-28.19h23.83v43.43h-13.02l.33-32.49h-2.21l-16.34,32.49h-11l-16.34-32.49h-2.34l.33,32.49h-13.02V13.34h23.96Z"/>
        <path class="cls-1" d="M265.84,15.68c3.32,2.54,4.3,6.9,4.3,19.34s-.98,16.86-4.3,19.4c-3.32,2.54-7.42,3-25.39,3s-22.33-.46-25.65-3c-3.39-2.6-4.3-6.9-4.3-19.66s.98-16.54,4.3-19.08c3.32-2.54,7.36-3,25.52-3s22.2.46,25.52,3ZM224.75,26.68c-.78,1.5-1.04,3.97-1.04,9.51s.39,7.16,1.95,8.4c1.76,1.37,3.84,1.56,14.78,1.56s12.76-.26,14.52-1.56c1.5-1.17,1.95-3.06,1.95-8.33,0-6.45-.39-8.92-1.56-10.35-1.5-1.76-2.93-1.95-15.04-1.95-13.02,0-14.26.2-15.56,2.73Z"/>
        <path class="cls-1" d="M324.79,13.34v11.07h-19.34v32.36h-13.87V24.41h-19.34v-11.07h52.54Z"/>
        <path class="cls-1" d="M382.26,15.68c3.32,2.54,4.3,6.9,4.3,19.34s-.98,16.86-4.3,19.4c-3.32,2.54-7.42,3-25.39,3s-22.33-.46-25.65-3c-3.39-2.6-4.3-6.9-4.3-19.66s.98-16.54,4.3-19.08c3.32-2.54,7.36-3,25.52-3s22.2.46,25.52,3ZM341.18,26.68c-.78,1.5-1.04,3.97-1.04,9.51s.39,7.16,1.95,8.4c1.76,1.37,3.84,1.56,14.78,1.56s12.76-.26,14.52-1.56c1.5-1.17,1.95-3.06,1.95-8.33,0-6.45-.39-8.92-1.56-10.35-1.5-1.76-2.93-1.95-15.04-1.95-13.02,0-14.26.2-15.56,2.73Z"/>
      </g>
      <g>
        <path class="cls-2" d="M161.4,84.05h-21.33l-3.13,5.58h-4l14.96-26.4h5.62l14.92,26.4h-3.92l-3.13-5.58ZM151.5,66.32h-1.42l-8.31,14.64h17.97l-8.23-14.64Z"/>
        <path class="cls-2" d="M200.38,80.61c-.2,5.07-.4,6.05-1.62,7.24-1.54,1.46-4.04,1.86-12.19,1.86-10.41,0-13.18-.4-14.92-2.1-1.5-1.46-2.06-4.39-2.06-10.77,0-7.32.63-10.45,2.45-11.91,1.27-.99,2.77-1.35,6.73-1.58,1.66-.12,5.15-.2,7.24-.2,8.11,0,10.92.51,12.62,2.26,1.19,1.19,1.34,2.02,1.43,6.57h-3.29v-.91c-.04-2.61-.43-3.4-1.94-4-1.31-.48-4.39-.75-8.98-.75-6.96,0-10.17.36-11.24,1.19-.99.83-1.46,3.36-1.46,7.95,0,2.18.24,6.41.4,7.72.32,2.02,1.19,2.85,3.4,3.05,1.74.2,5.34.32,8.55.32,2.61,0,7.2-.2,8.23-.35,2.65-.4,3.21-1.11,3.21-4.39l.04-1.19h3.4Z"/>
        <path class="cls-2" d="M232.32,63.24v3.09h-13.18v23.31h-3.52v-23.31h-13.26v-3.09h29.96Z"/>
        <path class="cls-2" d="M238.75,63.24v26.4h-3.52v-26.4h3.52Z"/>
        <path class="cls-2" d="M273.46,65.3c1.11,1.07,1.58,2.41,1.86,5.22.16,1.35.28,4,.28,6.02,0,6.49-.55,9.46-2.02,11.04-1.54,1.62-4.47,2.14-12.55,2.14-7.04,0-11.56-.2-13.53-.63-2.14-.47-3.84-2.14-4.31-4.27-.43-1.74-.59-4.19-.59-8.47,0-7.08.63-9.89,2.57-11.4,1.34-.99,2.69-1.35,6.29-1.58,1.58-.08,6.13-.2,8.43-.2,9.02,0,11.87.44,13.58,2.14ZM247.53,67.63c-.95.87-1.34,3.36-1.34,8.43,0,5.86.28,8.15,1.11,9.06.71.75,1.78,1.03,4.71,1.23,1.43.08,5.86.2,7.56.2,3.88,0,7.52-.2,9.3-.51,1.55-.28,2.38-1.11,2.69-2.69.24-1.42.44-4.27.44-6.73,0-2.97-.16-6.13-.4-7.32-.24-1.5-1.19-2.3-2.97-2.57-2.02-.32-4.04-.4-10.8-.4s-9.26.36-10.29,1.31Z"/>
        <path class="cls-2" d="M285.35,63.24l23.07,23.15h.83v-23.15h3.52v26.4h-5.97l-22.99-23.11h-.79v23.11h-3.52v-26.4h5.86Z"/>
        <path class="cls-2" d="M321.79,85.16v4.47h-4.31v-4.47h4.31Z"/>
        <path class="cls-2" d="M329,81.4v.55c.08,3.05.32,3.68,1.66,4.2,1.03.4,4.12.59,9.5.59,3.44,0,6.96-.24,8.47-.59,1.7-.36,2.53-1.66,2.53-3.92s-.51-3.32-1.9-3.8q-1.31-.44-14.21-.44c-6.97,0-9.54-1.98-9.54-7.36,0-2.38.67-4.12,1.98-5.18,1.34-1.11,2.73-1.54,5.74-1.9,1.94-.24,5.5-.4,8.03-.4,5.94,0,8.87.55,10.69,2.02,1.5,1.19,1.94,2.49,1.98,5.9h-3.52v-.4c0-2.57-.4-3.24-2.22-3.84-1.31-.44-3.76-.67-7.09-.67-9.97,0-11.99.75-11.99,4.51,0,2.41.48,3.21,2.26,3.72,1.23.32,3.28.51,6.37.55q1.94,0,8.99.04c3.84,0,5.66.63,6.89,2.41.79,1.11,1.15,2.57,1.15,4.55,0,3.32-.99,5.34-3.09,6.41-1.98.95-5.82,1.35-13.77,1.35-6.02,0-8.31-.32-9.93-1.31-1.82-1.15-2.41-2.53-2.41-5.82,0-.08,0-.71.04-1.19h3.4Z"/>
        <path class="cls-2" d="M358.23,63.24h25.84v3.09h-22.32v8.07h21.37v3.09h-21.37v9.06h22.36v3.09h-25.88v-26.4Z"/>
      </g>
    </g>
    <g>
      <polygon class="cls-1" points="55.45 23.59 55.45 23.59 55.45 46.33 92.59 31.5 92.59 102.8 110.93 95.05 110.93 0 55.45 23.59"/>
      <polygon class="cls-2" points="0 0 0 95.05 18.34 102.8 18.34 31.5 55.48 46.33 55.48 23.59 55.48 23.59 55.48 23.59 0 0"/>
      <polygon class="cls-2" points="30.47 107.93 43.38 113.38 43.38 97.01 55.45 101.85 55.45 85.83 43.38 81.01 43.38 66.93 55.45 71.76 55.45 55.75 30.47 45.76 30.47 107.93"/>
      <polygon class="cls-1" points="67.53 66.93 67.53 81 55.45 85.83 55.45 101.85 67.53 97.01 67.53 113.38 80.44 107.93 80.44 45.76 55.45 55.75 55.45 71.76 67.53 66.93"/>
    </g>
  </g>
</svg>